# Blender 4.3.0
# www.blender.org
mtllib Rock1.mtl
o Cube
v 0.896930 -0.116701 -1.078061
v 0.736314 -0.076033 1.066762
v -1.052088 -0.064600 0.954513
v -0.692441 -0.114299 -0.835835
v 1.303753 1.083753 -1.023542
v 0.444005 1.032712 1.513821
v -1.019775 1.174950 1.105961
v -0.681862 1.180458 -1.481573
v 1.045407 -0.157597 -0.147996
v 0.067265 -0.072713 -0.783522
v 1.200361 0.538245 -1.221685
v -0.154563 -0.114500 1.228987
v 1.155268 0.478039 1.381585
v -1.094633 -0.254018 -0.118459
v -1.648060 0.452009 0.853586
v -1.185727 0.481559 -1.133555
v 0.975431 1.246558 0.047895
v 0.105258 1.126820 -1.585067
v -0.344848 1.152380 1.730000
v -1.177093 1.303243 0.009798
v -0.015789 -0.312706 -0.060242
v 0.046107 1.351565 -0.253730
v 1.175182 0.692469 0.169032
v 0.260077 0.452640 1.365451
v -1.648881 0.429819 -0.064031
v -0.199824 0.336820 -1.536424
v 1.008866 -0.126459 0.470257
v -0.321458 -0.060305 -0.702046
v 1.385825 0.807576 -1.181814
v -0.537873 -0.057997 1.154378
v 0.936321 0.677546 1.426494
v -0.862364 -0.219203 -0.537108
v -1.281588 0.883991 1.218077
v -0.974527 0.926074 -1.431442
v 0.808457 1.346412 0.902078
v -0.174992 1.147173 -1.801163
v -0.610285 1.147948 1.327881
v -1.356023 1.245036 -0.716849
v 1.042022 -0.190494 -0.637866
v 0.468949 -0.142859 -1.026806
v 1.081272 0.175115 -1.287556
v 0.243586 -0.141476 1.191072
v 1.014587 0.183491 1.312948
v -1.155731 -0.217847 0.459469
v -1.571341 0.110279 0.770709
v -1.063276 0.074521 -1.015607
v 1.231954 1.216866 -0.594471
v 0.770454 1.122192 -1.299703
v -0.065279 1.102928 1.796044
v -1.176430 1.281231 0.646380
v -0.476225 -0.274043 -0.037390
v 0.480423 -0.312115 -0.111060
v 0.172793 -0.188473 -0.532460
v -0.106274 -0.274351 0.595963
v -0.198010 1.360380 0.630818
v 0.062998 1.276304 -0.994314
v 0.611501 1.352344 -0.290780
v -0.603343 1.343584 -0.011276
v 1.267461 0.630730 1.008356
v 1.267107 0.600208 -0.689727
v 1.268899 0.241091 -0.063884
v 1.050912 1.068502 0.197512
v -1.043570 0.402928 1.289593
v 0.667029 0.439932 1.448684
v -0.135120 0.156677 1.505020
v -0.066870 0.652060 1.602193
v -1.759897 0.319614 -0.724614
v -1.646483 0.462612 0.459024
v -1.548443 -0.153801 -0.255587
v -1.483055 1.068517 0.045330
v -0.775458 0.497559 -1.402503
v 0.556317 0.449266 -1.496503
v 0.153226 0.839249 -1.832230
v -0.180515 0.060946 -1.233899
v -0.630920 -0.226328 0.592326
v -0.677921 1.329703 0.698183
v 1.115930 1.067893 0.980967
v -0.944509 0.743625 1.392342
v -1.719440 0.916506 -0.699776
v -0.751048 0.149059 -1.123006
v -0.359688 -0.219676 -0.596748
v 0.548058 -0.284113 -0.657622
v 0.383454 -0.298149 0.533170
v 0.342781 1.370886 0.863692
v 0.801564 1.333314 -0.716665
v -0.544178 1.290048 -0.889409
v 1.347667 0.189763 0.746821
v 1.323792 0.127379 -0.856060
v 1.423543 0.897206 -0.707035
v -0.706694 0.190636 1.346937
v 0.494274 0.153436 1.399456
v 0.524189 0.691410 1.410453
v -1.346437 -0.078697 -0.808084
v -1.550380 0.033513 0.487642
v -1.434319 1.017100 0.746778
v -0.263198 0.916780 -1.716774
v 0.802037 0.850318 -1.528586
v 0.512712 0.114694 -1.198383
vn 0.2412 -0.8243 -0.5121
vn 0.3150 -0.8657 0.3891
vn -0.2867 -0.8387 0.4631
vn 0.0618 -0.8190 -0.5705
vn 0.5847 0.7282 -0.3575
vn 0.3430 0.5407 0.7681
vn -0.3174 0.8316 0.4558
vn -0.2787 0.8413 -0.4631
vn 0.5019 -0.8639 0.0426
vn -0.1474 -0.8932 -0.4247
vn 0.7265 -0.2970 -0.6197
vn -0.0785 -0.8803 0.4680
vn 0.6315 -0.0612 0.7730
vn -0.1590 -0.9870 -0.0219
vn -0.8797 -0.0712 0.4701
vn -0.5077 -0.2640 -0.8201
vn 0.4596 0.8856 0.0675
vn 0.1483 0.8669 -0.4760
vn -0.1726 0.7559 0.6315
vn -0.2960 0.9551 0.0103
vn -0.0508 -0.9968 -0.0611
vn -0.0197 0.9985 -0.0501
vn 0.9858 0.1624 0.0439
vn 0.0060 -0.1165 0.9932
vn -0.9962 -0.0371 0.0785
vn -0.0901 -0.5959 -0.7980
vn 0.4648 -0.8761 0.1283
vn -0.0184 -0.8825 -0.4700
vn 0.8600 -0.0200 -0.5099
vn -0.2036 -0.8460 0.4927
vn 0.4504 0.2614 0.8537
vn -0.0531 -0.9638 -0.2612
vn -0.6495 0.4045 0.6439
vn -0.5679 0.1551 -0.8083
vn 0.3750 0.9016 0.2157
vn -0.0534 0.7800 -0.6235
vn -0.2615 0.8160 0.5156
vn -0.3802 0.9076 -0.1780
vn 0.4240 -0.8982 -0.1158
vn -0.0952 -0.8863 -0.4532
vn 0.5137 -0.4578 -0.7256
vn 0.1001 -0.8950 0.4346
vn 0.4931 -0.5864 0.6427
vn -0.2296 -0.9566 0.1797
vn -0.7059 -0.5839 0.4009
vn -0.2037 -0.6382 -0.7424
vn 0.5207 0.8534 -0.0228
vn 0.2506 0.8423 -0.4772
vn 0.1280 0.5870 0.7994
vn -0.3348 0.9287 0.1597
vn -0.0388 -0.9987 -0.0315
vn 0.0786 -0.9966 -0.0230
vn -0.1415 -0.9489 -0.2821
vn -0.0661 -0.9870 0.1467
vn -0.0477 0.9956 0.0804
vn 0.0307 0.9851 -0.1692
vn 0.0856 0.9961 -0.0203
vn -0.0522 0.9983 -0.0279
vn 0.9367 0.2451 0.2502
vn 0.9908 -0.1336 0.0212
vn 0.9786 -0.2052 0.0166
vn 0.8983 0.4274 0.1020
vn -0.4009 -0.2854 0.8705
vn 0.0967 -0.1177 0.9883
vn -0.0872 -0.2830 0.9552
vn -0.0797 -0.3989 0.9135
vn -0.8797 -0.2626 -0.3964
vn -0.9941 0.0817 0.0713
vn -0.5429 -0.8389 -0.0378
vn -0.7945 0.6007 0.0886
vn -0.3604 -0.4133 -0.8363
vn 0.2368 -0.4705 -0.8501
vn 0.1388 0.0029 -0.9903
vn -0.1167 -0.8557 -0.5041
vn -0.0885 -0.9801 0.1778
vn -0.0936 0.9871 0.1299
vn 0.7555 0.5704 0.3221
vn -0.4067 -0.1127 0.9066
vn -0.8749 0.4007 -0.2720
vn -0.1731 -0.7228 -0.6690
vn 0.0217 -0.9433 -0.3311
vn -0.0029 -0.9845 -0.1751
vn 0.1085 -0.9850 0.1338
vn 0.0802 0.9840 0.1593
vn 0.1451 0.9800 -0.1362
vn -0.0340 0.9921 -0.1205
vn 0.8787 -0.4480 0.1652
vn 0.8958 -0.4076 -0.1773
vn 0.9881 0.1178 0.0990
vn -0.3120 -0.2799 0.9079
vn 0.1359 -0.4558 0.8797
vn 0.1550 -0.2284 0.9612
vn -0.3956 -0.8181 -0.4175
vn -0.7173 -0.6768 0.1659
vn -0.7790 0.5900 0.2124
vn -0.2479 -0.0318 -0.9683
vn 0.4176 0.1992 -0.8865
vn 0.0175 -0.6606 -0.7505
vt 0.137636 0.563411
vt 0.058285 0.569867
vt 0.082613 0.506661
vt 0.152906 0.498683
vt 0.155028 0.344089
vt 0.206316 0.378186
vt 0.155630 0.402329
vt 0.099783 0.387655
vt 0.896175 0.282885
vt 0.854473 0.349296
vt 0.794976 0.248970
vt 0.870663 0.174892
vt 0.949240 0.587705
vt 0.944083 0.694636
vt 0.905653 0.682602
vt 0.916733 0.604517
vt 0.336809 0.082005
vt 0.369246 0.000842
vt 0.489191 0.000000
vt 0.460672 0.063535
vt 0.485748 0.254952
vt 0.512673 0.310590
vt 0.481603 0.323059
vt 0.447322 0.276247
vt 0.276846 0.583529
vt 0.215363 0.578539
vt 0.223692 0.502410
vt 0.270084 0.523882
vt 0.288525 0.695621
vt 0.226456 0.694739
vt 0.220811 0.635843
vt 0.266533 0.646047
vt 0.149628 0.688747
vt 0.060049 0.668982
vt 0.053708 0.620010
vt 0.140662 0.629249
vt 0.046020 0.277128
vt 0.115533 0.299946
vt 0.042023 0.402498
vt 0.011393 0.383384
vt 0.133867 0.094672
vt 0.226136 0.127633
vt 0.165692 0.199396
vt 0.116225 0.149680
vt 0.273683 0.187557
vt 0.335575 0.267841
vt 0.258354 0.321530
vt 0.206193 0.274302
vt 0.422948 0.654063
vt 0.520455 0.684734
vt 0.477461 0.726331
vt 0.404599 0.713241
vt 0.422729 0.459207
vt 0.529375 0.479105
vt 0.539575 0.580737
vt 0.439840 0.553878
vt 0.744126 0.814485
vt 0.672331 0.787452
vt 0.683844 0.711964
vt 0.731678 0.707183
vt 0.016271 0.536299
vt 0.006598 0.482318
vt 0.054401 0.402498
vt 0.090851 0.431859
vt 0.857058 0.070133
vt 0.855242 0.125920
vt 0.818683 0.137473
vt 0.786060 0.070157
vt 0.829103 0.182611
vt 0.720806 0.251159
vt 0.693981 0.268226
vt 0.758736 0.168010
vt 0.408067 0.318081
vt 0.348488 0.225548
vt 0.431026 0.176751
vt 0.834672 0.401576
vt 0.821728 0.494375
vt 0.758928 0.488146
vt 0.747834 0.361119
vt 0.853441 0.628842
vt 0.844101 0.700647
vt 0.766741 0.707183
vt 0.766456 0.640000
vt 0.554998 0.057463
vt 0.491069 0.166304
vt 0.661203 0.071636
vt 0.642437 0.169965
vt 0.565426 0.199969
vt 0.608937 0.072162
vt 0.628288 0.255903
vt 0.619708 0.321108
vt 0.560004 0.310321
vt 0.556413 0.271543
vt 0.934356 0.187628
vt 0.907061 0.133559
vt 0.622627 0.581780
vt 0.617335 0.678426
vt 0.662917 0.562066
vt 0.672331 0.661064
vt 0.939564 0.506329
vt 0.869574 0.490922
vt 0.791582 0.866218
vt 0.744126 0.821215
vt 0.752056 0.707183
vt 0.791426 0.711743
vt 1.000000 0.606532
vt 0.999879 0.706758
vt 0.672331 0.596657
vt 0.677773 0.459778
vt 0.674914 0.687648
vt 0.387737 0.801509
vt 0.336809 0.833560
vt 0.336920 0.785916
vt 0.384519 0.726331
vt 0.506205 0.350977
vt 0.448079 0.354288
vt 0.559475 0.342029
vt 0.609960 0.361119
vt 0.324683 0.722893
vt 0.278588 0.749240
vt 0.320949 0.673747
vt 0.218381 0.752553
vt 0.143231 0.752483
vt 0.069266 0.722735
vt 0.808347 0.361119
vt 0.056221 0.145884
vt 0.000000 0.241327
vt 0.085645 0.065345
vt 0.116277 0.014773
vt 0.187902 0.035191
vt 0.273048 0.064123
vt 0.316518 0.068429
vt 0.336809 0.140426
vt 0.340137 0.610197
vt 0.336809 0.674909
vt 0.339988 0.536299
vt 0.336833 0.476818
vt 0.353162 0.419686
vt 0.429528 0.400325
vt 0.517650 0.412671
vt 0.604166 0.482239
vt 0.586459 0.423461
vt 0.646477 0.441109
vt 0.670954 0.491413
vt 0.000000 0.608449
vt 0.694133 0.143704
vt 0.736508 0.092307
vt 0.012308 0.682984
vt 0.019832 0.742597
vt 0.913859 0.076969
vt 0.232244 0.440506
vt 0.291247 0.454530
vt 0.685316 0.388716
vt 0.130148 0.436240
vt 0.867108 0.417288
vt 0.563922 0.000091
vt 0.582099 0.007382
vt 0.207942 0.000000
vt 0.293309 0.025246
vt 0.579472 0.365264
vt 0.639569 0.392860
vt 0.477201 0.361119
vt 0.693981 0.150197
vt 0.693822 0.237100
vt 0.668575 0.311882
s 1
usemtl Material
f 75/1/75 30/2/30 3/3/3 44/4/44
f 76/5/76 50/6/50 7/7/7 37/8/37
f 77/9/77 35/10/35 6/11/6 31/12/31
f 78/13/78 37/14/37 7/15/7 33/16/33
f 79/17/79 38/18/38 8/19/8 34/20/34
f 80/21/80 28/22/28 4/23/4 46/24/46
f 81/25/81 51/26/51 14/27/14 32/28/32
f 82/29/82 52/30/52 21/31/21 53/32/53
f 83/33/83 42/34/42 12/35/12 54/36/54
f 84/37/84 55/38/55 19/39/19 49/40/49
f 85/41/85 56/42/56 22/43/22 57/44/57
f 86/45/86 38/46/38 20/47/20 58/48/58
f 87/49/87 59/50/59 13/51/13 43/52/43
f 88/53/88 60/54/60 23/55/23 61/56/61
f 89/57/89 47/58/47 17/59/17 62/60/62
f 90/61/90 63/62/63 15/63/15 45/64/45
f 91/65/91 64/66/64 24/67/24 65/68/65
f 92/69/92 49/70/49 19/71/19 66/72/66
f 93/73/93 67/74/67 16/75/16 46/24/46
f 94/76/94 68/77/68 25/78/25 69/79/69
f 95/80/95 50/81/50 20/82/20 70/83/70
f 96/84/96 71/85/71 16/75/16 34/20/34
f 97/86/97 72/87/72 26/88/26 73/89/73
f 98/90/98 40/91/40 10/92/10 74/93/74
f 51/26/51 75/1/75 44/4/44 14/27/14
f 21/31/21 54/36/54 75/1/75 51/26/51
f 54/36/54 12/35/12 30/2/30 75/1/75
f 55/38/55 76/5/76 37/8/37 19/39/19
f 22/43/22 58/48/58 76/5/76 55/38/55
f 58/48/58 20/47/20 50/6/50 76/5/76
f 59/94/59 77/9/77 31/12/31 13/95/13
f 23/55/23 62/96/62 77/97/77 59/50/59
f 62/96/62 17/98/17 35/99/35 77/97/77
f 63/100/63 78/13/78 33/16/33 15/101/15
f 24/102/24 66/103/66 78/104/78 63/105/63
f 66/106/66 19/107/19 37/14/37 78/13/78
f 67/74/67 79/17/79 34/20/34 16/75/16
f 25/78/25 70/83/70 79/108/79 67/109/67
f 70/83/70 20/82/20 38/110/38 79/108/79
f 71/85/71 80/21/80 46/24/46 16/75/16
f 26/88/26 74/93/74 80/21/80 71/85/71
f 74/111/74 10/112/10 28/113/28 80/114/80
f 28/22/28 81/115/81 32/116/32 4/23/4
f 10/92/10 53/117/53 81/115/81 28/22/28
f 53/32/53 21/31/21 51/26/51 81/25/81
f 40/91/40 82/118/82 53/117/53 10/92/10
f 1/119/1 39/120/39 82/29/82 40/121/40
f 39/120/39 9/122/9 52/30/52 82/29/82
f 52/30/52 83/33/83 54/36/54 21/31/21
f 9/122/9 27/123/27 83/33/83 52/30/52
f 27/123/27 2/124/2 42/34/42 83/33/83
f 35/10/35 84/125/84 49/70/49 6/11/6
f 17/126/17 57/44/57 84/37/84 35/127/35
f 57/44/57 22/43/22 55/38/55 84/37/84
f 47/128/47 85/41/85 57/44/57 17/126/17
f 5/129/5 48/130/48 85/41/85 47/128/47
f 48/130/48 18/131/18 56/42/56 85/41/85
f 56/42/56 86/45/86 58/48/58 22/43/22
f 18/131/18 36/132/36 86/45/86 56/42/56
f 36/132/36 8/133/8 38/46/38 86/45/86
f 27/134/27 87/49/87 43/52/43 2/135/2
f 9/136/9 61/56/61 87/49/87 27/134/27
f 61/56/61 23/55/23 59/50/59 87/49/87
f 39/137/39 88/53/88 61/56/61 9/136/9
f 1/138/1 41/139/41 88/53/88 39/137/39
f 41/139/41 11/140/11 60/54/60 88/53/88
f 60/54/60 89/141/89 62/96/62 23/55/23
f 11/140/11 29/142/29 89/141/89 60/54/60
f 29/142/29 5/143/5 47/144/47 89/141/89
f 30/2/30 90/61/90 45/64/45 3/3/3
f 12/35/12 65/145/65 90/61/90 30/2/30
f 65/68/65 24/67/24 63/146/63 90/147/90
f 42/34/42 91/148/91 65/145/65 12/35/12
f 2/124/2 43/149/43 91/148/91 42/34/42
f 43/150/43 13/95/13 64/66/64 91/65/91
f 64/66/64 92/69/92 66/72/66 24/67/24
f 13/95/13 31/12/31 92/69/92 64/66/64
f 31/12/31 6/11/6 49/70/49 92/69/92
f 32/116/32 93/73/93 46/24/46 4/23/4
f 14/27/14 69/151/69 93/152/93 32/28/32
f 69/79/69 25/78/25 67/109/67 93/153/93
f 44/4/44 94/154/94 69/151/69 14/27/14
f 3/3/3 45/64/45 94/154/94 44/4/44
f 45/155/45 15/101/15 68/77/68 94/76/94
f 68/77/68 95/80/95 70/83/70 25/78/25
f 15/101/15 33/16/33 95/80/95 68/77/68
f 33/16/33 7/15/7 50/81/50 95/80/95
f 36/156/36 96/84/96 34/20/34 8/19/8
f 18/157/18 73/89/73 96/84/96 36/156/36
f 73/89/73 26/88/26 71/85/71 96/84/96
f 48/130/48 97/158/97 73/159/73 18/131/18
f 5/143/5 29/142/29 97/160/97 48/161/48
f 29/142/29 11/140/11 72/162/72 97/160/97
f 72/87/72 98/90/98 74/93/74 26/88/26
f 11/163/11 41/164/41 98/90/98 72/87/72
f 41/164/41 1/165/1 40/91/40 98/90/98
